<svg width="100" height="20" viewBox="0 0 100 20" fill="none" xmlns="http://www.w3.org/2000/svg">
<g clip-path="url(#clip0_237_350)">
<path d="M31.3619 3.18175C31.1801 2.5808 30.8255 2.03293 30.3334 1.59271C29.8413 1.15249 29.2288 0.835278 28.557 0.672662C26.0977 0.0726624 16.1993 0.0726624 16.1993 0.0726624C16.1993 0.0726624 6.30091 0.0908442 3.84156 0.690844C3.16976 0.85346 2.55731 1.17067 2.06519 1.61089C1.57308 2.05111 1.21847 2.59898 1.03668 3.19993C0.292781 7.10903 0.00416276 13.0654 1.05701 16.8181C1.23879 17.4191 1.5934 17.9669 2.08552 18.4072C2.57764 18.8474 3.19009 19.1646 3.86189 19.3272C6.32124 19.9272 16.2196 19.9272 16.2196 19.9272C16.2196 19.9272 26.118 19.9272 28.5773 19.3272C29.2491 19.1646 29.8616 18.8474 30.3537 18.4072C30.8458 17.9669 31.2004 17.4191 31.3822 16.8181C32.1668 12.9036 32.4086 6.95084 31.3619 3.18175Z" fill="#FF0000"/>
<path d="M13.049 14.2545L21.2603 9.99997L13.049 5.74542V14.2545Z" fill="white"/>
<path d="M42.1935 5.27273V14H39.8242V5.27273H42.1935ZM48.021 8C47.9982 7.71591 47.8917 7.49432 47.7013 7.33523C47.5138 7.17614 47.2283 7.09659 46.8448 7.09659C46.6005 7.09659 46.4002 7.12642 46.244 7.18608C46.0906 7.2429 45.9769 7.32102 45.9031 7.42045C45.8292 7.51989 45.7908 7.63352 45.788 7.76136C45.7823 7.86648 45.8008 7.96165 45.8434 8.04688C45.8888 8.12926 45.9599 8.20455 46.0565 8.27273C46.1531 8.33807 46.2766 8.39773 46.4272 8.4517C46.5778 8.50568 46.7567 8.55398 46.9641 8.59659L47.68 8.75C48.163 8.85227 48.5763 8.98722 48.9201 9.15483C49.2638 9.32244 49.5451 9.51989 49.7638 9.74716C49.9826 9.97159 50.1431 10.2244 50.2454 10.5057C50.3505 10.7869 50.4045 11.0937 50.4073 11.4261C50.4045 12 50.261 12.4858 49.9769 12.8835C49.6928 13.2812 49.2866 13.5838 48.7582 13.7912C48.2326 13.9986 47.6005 14.1023 46.8619 14.1023C46.1033 14.1023 45.4414 13.9901 44.8761 13.7656C44.3136 13.5412 43.8761 13.196 43.5636 12.7301C43.2539 12.2614 43.0977 11.6619 43.0948 10.9318H45.3448C45.359 11.1989 45.4258 11.4233 45.5451 11.6051C45.6644 11.7869 45.832 11.9247 46.0479 12.0185C46.2667 12.1122 46.5266 12.1591 46.8278 12.1591C47.0806 12.1591 47.2923 12.1278 47.4627 12.0653C47.6332 12.0028 47.7624 11.9162 47.8505 11.8054C47.9386 11.6946 47.984 11.5682 47.9869 11.4261C47.984 11.2926 47.94 11.1761 47.8548 11.0767C47.7724 10.9744 47.636 10.8835 47.4457 10.804C47.2553 10.7216 46.9982 10.6449 46.6744 10.5739L45.805 10.3864C45.0323 10.2187 44.4229 9.93892 43.9769 9.54688C43.5337 9.15199 43.3136 8.61364 43.3164 7.93182C43.3136 7.37784 43.4613 6.89347 43.7596 6.47869C44.0607 6.06108 44.4769 5.7358 45.0082 5.50284C45.5423 5.26989 46.1545 5.15341 46.8448 5.15341C47.5494 5.15341 48.1587 5.27131 48.6729 5.5071C49.1871 5.7429 49.5835 6.07528 49.8619 6.50426C50.1431 6.9304 50.2852 7.42898 50.288 8H48.021ZM51.3086 14V5.27273H55.0756C55.7234 5.27273 56.2901 5.40057 56.7759 5.65625C57.2617 5.91193 57.6396 6.27131 57.9094 6.73438C58.1793 7.19744 58.3143 7.73864 58.3143 8.35795C58.3143 8.98295 58.1751 9.52415 57.8967 9.98153C57.6211 10.4389 57.2333 10.7912 56.7333 11.0384C56.2362 11.2855 55.6552 11.4091 54.9904 11.4091H52.7404V9.56818H54.5131C54.7915 9.56818 55.0288 9.51989 55.2248 9.4233C55.4237 9.32386 55.5756 9.18324 55.6808 9.00142C55.7887 8.8196 55.8427 8.60511 55.8427 8.35795C55.8427 8.10795 55.7887 7.89489 55.6808 7.71875C55.5756 7.53977 55.4237 7.40341 55.2248 7.30966C55.0288 7.21307 54.7915 7.16477 54.5131 7.16477H53.6779V14H51.3086ZM58.945 7.18182V5.27273H66.5302V7.18182H63.9052V14H61.57V7.18182H58.945ZM72.5866 5.27273H74.956V10.8636C74.956 11.5284 74.7969 12.1037 74.4787 12.5895C74.1634 13.0724 73.723 13.446 73.1577 13.7102C72.5923 13.9716 71.9361 14.1023 71.1889 14.1023C70.4361 14.1023 69.777 13.9716 69.2116 13.7102C68.6463 13.446 68.206 13.0724 67.8906 12.5895C67.5781 12.1037 67.4219 11.5284 67.4219 10.8636V5.27273H69.7912V10.6591C69.7912 10.929 69.8509 11.1705 69.9702 11.3835C70.0895 11.5937 70.2543 11.7585 70.4645 11.8778C70.6776 11.9972 70.919 12.0568 71.1889 12.0568C71.4616 12.0568 71.7031 11.9972 71.9134 11.8778C72.1236 11.7585 72.2884 11.5937 72.4077 11.3835C72.527 11.1705 72.5866 10.929 72.5866 10.6591V5.27273ZM76.082 14V5.27273H79.8661C80.5309 5.27273 81.0891 5.36222 81.5408 5.54119C81.9954 5.72017 82.3377 5.97301 82.5678 6.29972C82.8008 6.62642 82.9173 7.01136 82.9173 7.45455C82.9173 7.77557 82.8462 8.06818 82.7042 8.33239C82.565 8.59659 82.369 8.81818 82.1161 8.99716C81.8633 9.1733 81.5678 9.29545 81.2298 9.36364V9.44886C81.6048 9.46307 81.9457 9.55824 82.2525 9.73438C82.5593 9.90767 82.8036 10.1477 82.9854 10.4545C83.1673 10.7585 83.2582 11.1165 83.2582 11.5284C83.2582 12.0057 83.1332 12.4304 82.8832 12.8026C82.636 13.1747 82.2837 13.4673 81.8263 13.6804C81.369 13.8935 80.8235 14 80.19 14H76.082ZM78.4513 12.108H79.5593C79.957 12.108 80.2553 12.0341 80.4542 11.8864C80.6531 11.7358 80.7525 11.5142 80.7525 11.2216C80.7525 11.017 80.7056 10.8437 80.6119 10.7017C80.5181 10.5597 80.3846 10.4517 80.2113 10.3778C80.0408 10.304 79.8349 10.267 79.5934 10.267H78.4513V12.108ZM78.4513 8.80114H79.4229C79.6303 8.80114 79.8136 8.76847 79.9727 8.70312C80.1317 8.63778 80.2553 8.54403 80.3434 8.42188C80.4343 8.29688 80.4798 8.14489 80.4798 7.96591C80.4798 7.69602 80.3832 7.49006 80.19 7.34801C79.9968 7.20312 79.7525 7.13068 79.457 7.13068H78.4513V8.80114ZM84.0977 14V5.27273H90.3874V7.18182H86.467V8.68182H90.0636V10.5909H86.467V12.0909H90.3704V14H84.0977Z" fill="white"/>
</g>
<defs>
<clipPath id="clip0_237_350">
<rect width="100" height="20" fill="white"/>
</clipPath>
</defs>
</svg>
